<?xml version="1.0" encoding="utf-8"?>
<!-- Generator: Adobe Illustrator 18.0.0, SVG Export Plug-In . SVG Version: 6.00 Build 0)  -->
<!DOCTYPE svg PUBLIC "-//W3C//DTD SVG 1.1//EN" "http://www.w3.org/Graphics/SVG/1.1/DTD/svg11.dtd">
<svg version="1.1" id="Layer_1" xmlns="http://www.w3.org/2000/svg" xmlns:xlink="http://www.w3.org/1999/xlink" x="0px" y="0px"
	 width="352.5px" height="219.7px" viewBox="0 0 352.5 219.7" style="enable-background:new 0 0 352.5 219.7;" xml:space="preserve"
	>
<style type="text/css">
	.st0{fill:#A5CD39;}
	.st1{fill:#802B7C;}
	.st2{fill:#00ADEE;}
	.st3{fill:#EC1C24;}
	.st4{fill:#FFDD00;}
	.st5{fill:#004B88;}
	.st6{fill:#6D6E70;}
</style>
<g>
	<g>
		<g id="XMLID_16_">
			<path id="XMLID_18_" class="st0" d="M186.9,13.7c-0.8-1.5-2.7-2-4.2-1.1l-14.5,8.4c1.6,1.3,2.7,3.1,3,5.3l14.5-8.4
				C187.2,17,187.7,15.1,186.9,13.7z"/>
			<path id="XMLID_17_" class="st1" d="M155.2,28.4l-14.5,8.4c-1.5,0.8-2,2.7-1.1,4.2c0.6,1,1.6,1.5,2.6,1.5c0.5,0,1-0.1,1.5-0.4
				l14.5-8.4C156.6,32.4,155.5,30.6,155.2,28.4z"/>
		</g>
		<g id="XMLID_13_">
			<path id="XMLID_15_" class="st2" d="M185.8,36.8l-14.5-8.4c-0.3,2.1-1.4,4-3,5.3l14.5,8.4c0.5,0.3,1,0.4,1.5,0.4
				c1.1,0,2.1-0.5,2.6-1.5C187.7,39.5,187.2,37.6,185.8,36.8z"/>
			<path id="XMLID_14_" class="st3" d="M158.2,20.9l-14.5-8.4c-1.5-0.8-3.3-0.3-4.2,1.1c-0.8,1.5-0.3,3.3,1.1,4.2l14.5,8.4
				C155.5,24,156.6,22.2,158.2,20.9z"/>
		</g>
		<g id="XMLID_10_">
			<path id="XMLID_12_" class="st4" d="M163.2,19.1c1.1,0,2.1,0.2,3,0.6l0-16.7c0-1.7-1.4-3-3-3c-1.7,0-3,1.4-3,3l0,16.7
				C161.1,19.3,162.1,19.1,163.2,19.1z"/>
			<path id="XMLID_11_" class="st5" d="M163.2,35.5c-1.1,0-2.1-0.2-3-0.6v16.7c0,1.7,1.4,3,3,3c1.7,0,3-1.4,3-3V34.9
				C165.3,35.3,164.3,35.5,163.2,35.5z"/>
		</g>
		<g>
			<path class="st0" d="M48.2,76.4c0.4,1.8,0.7,3.8,0.7,5.9c0,2.1-0.2,4-0.7,5.8L27.8,88v50c0,4.7,2.2,7,6.7,7h11.4
				c0.9,2.1,1.3,4.3,1.3,6.8c0,2.4-0.1,4-0.2,4.6c-6.3,0.8-12.3,1.1-17.9,1.1c-11.1,0-16.6-5.3-16.6-15.9V88L0.7,88.1
				C0.2,86.4,0,84.5,0,82.4c0-2.1,0.2-4.1,0.7-5.9l11.9,0.2V61.8c0-3.7,0.6-6.3,1.8-7.8c1.2-1.5,3.4-2.3,6.7-2.3h5.9l1,1v24.1
				L48.2,76.4z"/>
			<path class="st0" d="M129.2,101.6v38.4c0,6.3,0.9,11.1,2.6,14.5c-2.8,2.3-6.1,3.4-9.9,3.4c-5.5,0-8.3-3.4-8.3-10.1v-42.2
				c0-5.9-0.8-10-2.3-12.5c-1.5-2.5-4.2-3.7-7.9-3.7s-7.6,1-11.6,2.9c-4,2-7.4,4.5-10.3,7.6v56.8c-1.8,0.4-4.4,0.6-7.6,0.6
				c-3.2,0-5.8-0.2-7.9-0.6V38.2l1.1-1h5.9c3.3,0,5.5,0.8,6.7,2.4c1.2,1.6,1.8,4.2,1.8,7.7v38.9c8-7.3,16.8-10.9,26.2-10.9
				c7.3,0,12.7,2.4,16.2,7.3C127.5,87.5,129.2,93.8,129.2,101.6z"/>
			<path class="st0" d="M172.3,89.9v66.9c-1.8,0.4-4.4,0.6-7.8,0.6c-3.4,0-6-0.2-7.8-0.6V96.4c0-2.9-0.5-5-1.5-6.3
				c-1-1.3-2.8-2-5.5-2h-1.8c-0.4-1.6-0.7-3.5-0.7-5.5c0-2.1,0.2-4,0.7-5.9c3.5-0.4,6.7-0.6,9.8-0.6h2.1c3.9,0,7,1.2,9.2,3.7
				C171.2,82.2,172.3,85.6,172.3,89.9z"/>
			<path class="st0" d="M261.7,101.5v38.6c0,6.5,0.8,11.3,2.4,14.5c-2.7,2.3-6,3.4-9.8,3.4c-5.6,0-8.5-3.4-8.5-10.1v-42.3
				c0-5.9-0.7-10-2.2-12.4c-1.5-2.4-4.1-3.7-7.8-3.7c-3.7,0-7.6,1-11.6,2.9c-4,2-7.4,4.5-10.3,7.6v56.8c-1.8,0.4-4.4,0.6-7.7,0.6
				c-3.3,0-6-0.2-8.1-0.6V76.9l1.1-1h5.9c5.5,0,8.5,3.4,8.8,10.3c8.1-7.4,16.9-11.1,26.2-11.1c7.3,0,12.7,2.4,16.2,7.3
				C259.9,87.3,261.7,93.7,261.7,101.5z"/>
			<path class="st0" d="M338.8,126.7l5.7,13.7c2.6,6.5,5.2,10.7,7.8,12.7c-2.6,3.3-6.1,4.9-10.6,4.9c-2.7,0-4.7-0.7-6.1-2.1
				c-1.4-1.4-2.7-3.8-4.2-7.2l-6.8-16.1c-1.8-4.3-3.7-7.3-5.6-8.8c-1.9-1.5-4.4-2.3-7.6-2.3c-3.2,0-6.2,0.2-8.9,0.5v34.8
				c-1.8,0.4-4.4,0.6-7.6,0.6c-3.2,0-5.8-0.2-7.9-0.6V38.2l1.1-1h5.9c3.3,0,5.5,0.8,6.7,2.4c1.2,1.6,1.8,4.2,1.8,7.7v61.5l5.9-0.3
				c1.4,0,2.7-0.8,3.9-2.4l15-23.1c1.4-2.4,2.9-4.1,4.4-5.2c1.5-1.1,3.8-1.6,6.9-1.6c3.1,0,5.6,0.1,7.6,0.2l1,1.3l-18.4,28.6
				c-1.4,2.3-3.1,4.2-5,5.9C330.3,113.8,335.4,118.7,338.8,126.7z"/>
		</g>
		<g>
			<path class="st6" d="M13.1,219.2l2.5-31.6c1.1-0.2,2.4-0.3,3.9-0.3c1.6,0,2.8,0.1,3.8,0.3l3.8,13.3c0.8,2.9,1.4,5.5,1.8,7.8h0.3
				c0.4-2.3,1-4.9,1.8-7.8l3.8-13.3c1.1-0.2,2.3-0.3,3.9-0.3c1.5,0,2.8,0.1,3.9,0.3l2.5,31.6c-0.8,0.2-1.7,0.3-2.8,0.3
				c-1.1,0-2-0.1-2.8-0.2L38.3,204c-0.2-2.9-0.3-6.2-0.4-9.9h-0.3L32,214.5c-1,0.2-2,0.2-3.1,0.2c-1.1,0-2-0.1-3-0.2L20.3,194H20
				c-0.2,4.6-0.3,7.9-0.4,9.9l-1,15.4c-0.7,0.1-1.7,0.2-2.8,0.2C14.8,219.6,13.8,219.5,13.1,219.2z"/>
			<path class="st6" d="M57.8,211.8l0,2.7c1.3-0.1,2.4-0.1,3.2-0.1h11.5c0,1,0,1.7-0.1,2.2c-0.3,1.9-1.6,2.8-3.8,2.8H55.3
				c-1.1,0-1.9-0.3-2.5-1c-0.6-0.6-0.9-1.5-0.9-2.6v-27.9l0.3-0.3h19.2c0.2,0.7,0.2,1.5,0.2,2.3c0,0.8-0.2,1.7-0.5,2.7H57.7l0,3.2
				v5.2c0.7,0,1.7,0,3,0h8.1c0.2,0.7,0.3,1.6,0.3,2.4c0,0.9-0.1,1.7-0.3,2.4h-8.1c-1.2,0-2.2,0-3,0V211.8z"/>
			<path class="st6" d="M102.1,187.4l0.3,0.3v31.6c-0.9,0.2-2,0.3-3.4,0.3c-1.4,0-2.6-0.1-3.7-0.2l-8.9-18.4
				c-0.8-1.6-1.7-3.7-2.8-6.5l-0.2,0c0.3,3.9,0.5,8,0.5,12.4v12.5c-0.8,0.2-1.7,0.2-2.8,0.2c-1,0-1.9-0.1-2.7-0.2v-31.7
				c0.9-0.2,2-0.3,3.4-0.3c1.4,0,2.6,0.1,3.6,0.2l8.8,18.4c0.8,1.7,1.8,4,3.1,6.8l0.1,0c-0.3-4.4-0.5-8.6-0.5-12.5V191
				c0-1.3,0.2-2.2,0.7-2.8c0.5-0.6,1.3-0.8,2.5-0.8H102.1z"/>
			<path class="st6" d="M120.9,192.5l0,3.4v23.4c-0.8,0.2-1.8,0.2-3,0.2c-1.2,0-2.2-0.1-2.9-0.2v-26.9l-2.8,0H107
				c-0.2-0.7-0.2-1.5-0.2-2.4c0-0.9,0.1-1.7,0.2-2.5h22c0.2,0.8,0.3,1.6,0.3,2.4c0,0.9-0.3,1.5-0.8,1.9c-0.5,0.4-1.3,0.6-2.4,0.6
				h-2.4L120.9,192.5L120.9,192.5z"/>
			<path class="st6" d="M149.4,212l-2.4,0h-6.5l-2.4,0l-2.3,7.3c-0.6,0.2-1.5,0.2-2.6,0.2c-1.1,0-2.1-0.1-2.7-0.4l-0.2-0.3
				l10.4-31.3c1-0.2,2.2-0.2,3.5-0.2c1.3,0,2.4,0.1,3.3,0.3l10.3,31.3c-0.9,0.5-1.9,0.7-3.1,0.7c-1.2,0-2-0.2-2.5-0.7
				s-1-1.3-1.3-2.5L149.4,212z M139.6,207.3l2.2,0h4.1c0.1,0,0.4,0,0.9,0c0.5,0,0.9,0,1.1,0l-1.6-5.2c-0.9-2.8-1.7-5.7-2.5-8.9h-0.2
				c-0.4,1.9-1,4.4-2,7.5L139.6,207.3z"/>
			<path class="st6" d="M172.5,214.3h8.8c0,1,0,1.8-0.1,2.2c-0.3,1.9-1.6,2.9-3.9,2.9h-11.5c-1.1,0-1.9-0.3-2.5-1
				c-0.6-0.6-0.9-1.5-0.9-2.6v-28.2l0.3-0.3h2.2c1.2,0,2,0.3,2.6,0.9c0.6,0.6,0.8,1.5,0.8,2.9v23.3
				C169.8,214.4,171.2,214.3,172.5,214.3z"/>
			<path class="st6" d="M212.5,200.5l0-3.4v-9.5c0.8-0.2,1.8-0.2,3-0.2c1.2,0,2.2,0.1,3,0.2v31.7c-0.8,0.2-1.8,0.2-3,0.2
				c-1.2,0-2.2-0.1-2.9-0.2v-10.5l0-3.4l-2.5,0h-6.9l-2.5,0l0,3.4v10.5c-0.8,0.2-1.8,0.2-3,0.2c-1.2,0-2.2-0.1-2.9-0.2v-31.7
				c0.7-0.2,1.7-0.2,2.9-0.2c1.2,0,2.2,0.1,3,0.2v9.5l0,3.4l2.5,0h6.9L212.5,200.5z"/>
			<path class="st6" d="M232.1,211.8l0,2.7c1.3-0.1,2.4-0.1,3.2-0.1h11.5c0,1,0,1.7-0.1,2.2c-0.3,1.9-1.6,2.8-3.8,2.8h-13.2
				c-1.1,0-1.9-0.3-2.5-1c-0.6-0.6-0.9-1.5-0.9-2.6v-27.9l0.3-0.3h19.2c0.2,0.7,0.2,1.5,0.2,2.3c0,0.8-0.2,1.7-0.5,2.7h-13.5l0,3.2
				v5.2c0.7,0,1.7,0,3,0h8.1c0.2,0.7,0.3,1.6,0.3,2.4c0,0.9-0.1,1.7-0.3,2.4h-8.1c-1.2,0-2.2,0-3,0V211.8z"/>
			<path class="st6" d="M268.6,212l-2.4,0h-6.5l-2.4,0l-2.3,7.3c-0.6,0.2-1.5,0.2-2.6,0.2c-1.1,0-2.1-0.1-2.7-0.4l-0.2-0.3
				l10.4-31.3c1-0.2,2.2-0.2,3.5-0.2c1.3,0,2.4,0.1,3.3,0.3L277,219c-0.9,0.5-1.9,0.7-3.1,0.7c-1.2,0-2-0.2-2.5-0.7s-1-1.3-1.3-2.5
				L268.6,212z M258.8,207.3l2.2,0h4.1c0.1,0,0.4,0,0.9,0c0.5,0,0.9,0,1.1,0l-1.6-5.2c-0.9-2.8-1.7-5.7-2.5-8.9h-0.2
				c-0.4,1.9-1,4.4-2,7.5L258.8,207.3z"/>
			<path class="st6" d="M291.7,214.3h8.8c0,1,0,1.8-0.1,2.2c-0.3,1.9-1.6,2.9-3.9,2.9H285c-1.1,0-1.9-0.3-2.5-1
				c-0.6-0.6-0.9-1.5-0.9-2.6v-28.2l0.3-0.3h2.2c1.2,0,2,0.3,2.6,0.9c0.6,0.6,0.8,1.5,0.8,2.9v23.3
				C289,214.4,290.4,214.3,291.7,214.3z"/>
			<path class="st6" d="M316.2,192.5l0,3.4v23.4c-0.8,0.2-1.8,0.2-3,0.2c-1.2,0-2.2-0.1-2.9-0.2v-26.9l-2.8,0h-5.3
				c-0.2-0.7-0.2-1.5-0.2-2.4c0-0.9,0.1-1.7,0.2-2.5h22c0.2,0.8,0.3,1.6,0.3,2.4c0,0.9-0.3,1.5-0.8,1.9c-0.5,0.4-1.3,0.6-2.4,0.6
				h-2.4L316.2,192.5L316.2,192.5z"/>
			<path class="st6" d="M346.6,200.5l0-3.4v-9.5c0.8-0.2,1.8-0.2,3-0.2c1.2,0,2.2,0.1,3,0.2v31.7c-0.8,0.2-1.8,0.2-3,0.2
				c-1.2,0-2.2-0.1-2.9-0.2v-10.5l0-3.4l-2.5,0h-6.9l-2.5,0l0,3.4v10.5c-0.8,0.2-1.8,0.2-3,0.2c-1.2,0-2.2-0.1-2.9-0.2v-31.7
				c0.7-0.2,1.7-0.2,2.9-0.2c1.2,0,2.2,0.1,3,0.2v9.5l0,3.4l2.5,0h6.9L346.6,200.5z"/>
		</g>
	</g>
</g>
</svg>
